<?xml version="1.0" encoding="UTF-8"?>
<svg xmlns="http://www.w3.org/2000/svg" xmlns:xlink="http://www.w3.org/1999/xlink" width="48pt" height="48pt" viewBox="0 0 48 48" version="1.1">
<g id="surface1">
<path style=" stroke:none;fill-rule:nonzero;fill:rgb(0%,0%,0%);fill-opacity:1;" d="M 32.996094 0 C 30.4375 0.175781 27.449219 1.816406 25.703125 3.949219 C 24.113281 5.882812 22.808594 8.757812 23.316406 11.550781 C 26.113281 11.636719 29.003906 9.960938 30.675781 7.789062 C 32.242188 5.773438 33.425781 2.914062 32.996094 0 Z M 32.996094 0 "/>
<path style=" stroke:none;fill-rule:nonzero;fill:rgb(0%,0%,0%);fill-opacity:1;" d="M 43.109375 16.105469 C 40.652344 13.023438 37.199219 11.234375 33.941406 11.234375 C 29.636719 11.234375 27.8125 13.296875 24.824219 13.296875 C 21.738281 13.296875 19.394531 11.242188 15.671875 11.242188 C 12.015625 11.242188 8.121094 13.476562 5.652344 17.296875 C 2.183594 22.679688 2.777344 32.796875 8.402344 41.417969 C 10.414062 44.5 13.101562 47.96875 16.617188 48 C 19.746094 48.03125 20.628906 45.992188 24.867188 45.972656 C 29.105469 45.949219 29.910156 48.027344 33.035156 47.992188 C 36.554688 47.964844 39.386719 44.125 41.402344 41.039062 C 42.84375 38.828125 43.382812 37.714844 44.5 35.21875 C 36.359375 32.121094 35.054688 20.546875 43.109375 16.105469 Z M 43.109375 16.105469 "/>
</g>
</svg>
